<?xml version="1.0" encoding="UTF-8" standalone="no"?>
<!DOCTYPE svg PUBLIC "-//W3C//DTD SVG 1.1//EN"
 "http://www.w3.org/Graphics/SVG/1.1/DTD/svg11.dtd">
<!-- Generated by graphviz version 9.0.0 (20230911.1827)
 -->
<!-- Pages: 1 -->
<svg width="1213pt" height="210pt"
 viewBox="0.00 0.00 1213.25 210.00" xmlns="http://www.w3.org/2000/svg" xmlns:xlink="http://www.w3.org/1999/xlink">
<g id="graph0" class="graph" transform="scale(1 1) rotate(0) translate(4 206)">
<polygon fill="white" stroke="none" points="-4,4 -4,-206 1209.25,-206 1209.25,4 -4,4"/>
<!-- 1417550272096 -->
<g id="node1" class="node">
<title>1417550272096</title>
<polygon fill="none" stroke="black" points="1078,-54.5 1078,-90.5 1205.25,-90.5 1205.25,-54.5 1078,-54.5"/>
<text text-anchor="middle" x="1110" y="-67.2" font-family="Times New Roman,serif" font-size="14.00">d:0.7071</text>
<polyline fill="none" stroke="black" points="1142,-54.75 1142,-90.5"/>
<text text-anchor="middle" x="1173.62" y="-67.2" font-family="Times New Roman,serif" font-size="14.00">g:1.0000</text>
</g>
<!-- 1417550272096tanh -->
<g id="node2" class="node">
<title>1417550272096tanh</title>
<ellipse fill="none" stroke="black" cx="1015" cy="-72.5" rx="27" ry="18"/>
<text text-anchor="middle" x="1015" y="-67.08" font-family="Times New Roman,serif" font-size="14.00">tanh</text>
</g>
<!-- 1417550272096tanh&#45;&gt;1417550272096 -->
<g id="edge1" class="edge">
<title>1417550272096tanh&#45;&gt;1417550272096</title>
<path fill="none" stroke="black" d="M1042.43,-72.5C1049.63,-72.5 1057.81,-72.5 1066.29,-72.5"/>
<polygon fill="black" stroke="black" points="1066.05,-76 1076.05,-72.5 1066.05,-69 1066.05,-76"/>
</g>
<!-- 1419380473472 -->
<g id="node3" class="node">
<title>1419380473472</title>
<polygon fill="none" stroke="black" points="0,-165.5 0,-201.5 164.25,-201.5 164.25,-165.5 0,-165.5"/>
<text text-anchor="middle" x="16.25" y="-178.2" font-family="Times New Roman,serif" font-size="14.00">w1</text>
<polyline fill="none" stroke="black" points="32.5,-165.75 32.5,-201.5"/>
<text text-anchor="middle" x="66.75" y="-178.2" font-family="Times New Roman,serif" font-size="14.00">d:&#45;3.0000</text>
<polyline fill="none" stroke="black" points="101,-165.75 101,-201.5"/>
<text text-anchor="middle" x="132.62" y="-178.2" font-family="Times New Roman,serif" font-size="14.00">g:1.0000</text>
</g>
<!-- 1417549882864* -->
<g id="node7" class="node">
<title>1417549882864*</title>
<ellipse fill="none" stroke="black" cx="227.25" cy="-128.5" rx="27" ry="18"/>
<text text-anchor="middle" x="227.25" y="-123.08" font-family="Times New Roman,serif" font-size="14.00">*</text>
</g>
<!-- 1419380473472&#45;&gt;1417549882864* -->
<g id="edge14" class="edge">
<title>1419380473472&#45;&gt;1417549882864*</title>
<path fill="none" stroke="black" d="M141,-165.05C148.86,-162.31 156.78,-159.42 164.25,-156.5 174.16,-152.62 184.77,-148.01 194.37,-143.65"/>
<polygon fill="black" stroke="black" points="195.69,-146.9 203.3,-139.54 192.76,-140.54 195.69,-146.9"/>
</g>
<!-- 1419380473520 -->
<g id="node4" class="node">
<title>1419380473520</title>
<polygon fill="none" stroke="black" points="3.75,-55.5 3.75,-91.5 160.5,-91.5 160.5,-55.5 3.75,-55.5"/>
<text text-anchor="middle" x="18.5" y="-68.2" font-family="Times New Roman,serif" font-size="14.00">x2</text>
<polyline fill="none" stroke="black" points="33.25,-55.75 33.25,-91.5"/>
<text text-anchor="middle" x="65.25" y="-68.2" font-family="Times New Roman,serif" font-size="14.00">d:0.0000</text>
<polyline fill="none" stroke="black" points="97.25,-55.75 97.25,-91.5"/>
<text text-anchor="middle" x="128.88" y="-68.2" font-family="Times New Roman,serif" font-size="14.00">g:0.5000</text>
</g>
<!-- 1417550271472* -->
<g id="node15" class="node">
<title>1417550271472*</title>
<ellipse fill="none" stroke="black" cx="227.25" cy="-73.5" rx="27" ry="18"/>
<text text-anchor="middle" x="227.25" y="-68.08" font-family="Times New Roman,serif" font-size="14.00">*</text>
</g>
<!-- 1419380473520&#45;&gt;1417550271472* -->
<g id="edge8" class="edge">
<title>1419380473520&#45;&gt;1417550271472*</title>
<path fill="none" stroke="black" d="M160.97,-73.5C170.51,-73.5 179.89,-73.5 188.45,-73.5"/>
<polygon fill="black" stroke="black" points="188.4,-77 198.4,-73.5 188.4,-70 188.4,-77"/>
</g>
<!-- 1417549882576 -->
<g id="node5" class="node">
<title>1417549882576</title>
<polygon fill="none" stroke="black" points="2.25,-0.5 2.25,-36.5 162,-36.5 162,-0.5 2.25,-0.5"/>
<text text-anchor="middle" x="18.5" y="-13.2" font-family="Times New Roman,serif" font-size="14.00">w2</text>
<polyline fill="none" stroke="black" points="34.75,-0.75 34.75,-36.5"/>
<text text-anchor="middle" x="66.75" y="-13.2" font-family="Times New Roman,serif" font-size="14.00">d:1.0000</text>
<polyline fill="none" stroke="black" points="98.75,-0.75 98.75,-36.5"/>
<text text-anchor="middle" x="130.38" y="-13.2" font-family="Times New Roman,serif" font-size="14.00">g:0.0000</text>
</g>
<!-- 1417549882576&#45;&gt;1417550271472* -->
<g id="edge13" class="edge">
<title>1417549882576&#45;&gt;1417550271472*</title>
<path fill="none" stroke="black" d="M141,-36.95C148.86,-39.69 156.78,-42.58 164.25,-45.5 174.16,-49.38 184.77,-53.99 194.37,-58.35"/>
<polygon fill="black" stroke="black" points="192.76,-61.46 203.3,-62.46 195.69,-55.1 192.76,-61.46"/>
</g>
<!-- 1417549882864 -->
<g id="node6" class="node">
<title>1417549882864</title>
<polygon fill="none" stroke="black" points="290.25,-110.5 290.25,-146.5 422,-146.5 422,-110.5 290.25,-110.5"/>
<text text-anchor="middle" x="324.5" y="-123.2" font-family="Times New Roman,serif" font-size="14.00">d:&#45;6.0000</text>
<polyline fill="none" stroke="black" points="358.75,-110.75 358.75,-146.5"/>
<text text-anchor="middle" x="390.38" y="-123.2" font-family="Times New Roman,serif" font-size="14.00">g:0.5000</text>
</g>
<!-- 1417550271760+ -->
<g id="node10" class="node">
<title>1417550271760+</title>
<ellipse fill="none" stroke="black" cx="485" cy="-100.5" rx="27" ry="18"/>
<text text-anchor="middle" x="485" y="-95.08" font-family="Times New Roman,serif" font-size="14.00">+</text>
</g>
<!-- 1417549882864&#45;&gt;1417550271760+ -->
<g id="edge10" class="edge">
<title>1417549882864&#45;&gt;1417550271760+</title>
<path fill="none" stroke="black" d="M422.42,-114.09C431.15,-112.16 439.83,-110.25 447.81,-108.49"/>
<polygon fill="black" stroke="black" points="448.42,-111.94 457.43,-106.36 446.91,-105.1 448.42,-111.94"/>
</g>
<!-- 1417549882864*&#45;&gt;1417549882864 -->
<g id="edge2" class="edge">
<title>1417549882864*&#45;&gt;1417549882864</title>
<path fill="none" stroke="black" d="M254.54,-128.5C261.76,-128.5 269.96,-128.5 278.5,-128.5"/>
<polygon fill="black" stroke="black" points="278.35,-132 288.35,-128.5 278.35,-125 278.35,-132"/>
</g>
<!-- 1419380473568 -->
<g id="node8" class="node">
<title>1419380473568</title>
<polygon fill="none" stroke="black" points="1.5,-110.5 1.5,-146.5 162.75,-146.5 162.75,-110.5 1.5,-110.5"/>
<text text-anchor="middle" x="16.25" y="-123.2" font-family="Times New Roman,serif" font-size="14.00">x1</text>
<polyline fill="none" stroke="black" points="31,-110.75 31,-146.5"/>
<text text-anchor="middle" x="63" y="-123.2" font-family="Times New Roman,serif" font-size="14.00">d:2.0000</text>
<polyline fill="none" stroke="black" points="95,-110.75 95,-146.5"/>
<text text-anchor="middle" x="128.88" y="-123.2" font-family="Times New Roman,serif" font-size="14.00">g:&#45;1.5000</text>
</g>
<!-- 1419380473568&#45;&gt;1417549882864* -->
<g id="edge11" class="edge">
<title>1419380473568&#45;&gt;1417549882864*</title>
<path fill="none" stroke="black" d="M163.06,-128.5C171.9,-128.5 180.57,-128.5 188.52,-128.5"/>
<polygon fill="black" stroke="black" points="188.44,-132 198.44,-128.5 188.44,-125 188.44,-132"/>
</g>
<!-- 1417550271760 -->
<g id="node9" class="node">
<title>1417550271760</title>
<polygon fill="none" stroke="black" points="557.5,-82.5 557.5,-118.5 689.25,-118.5 689.25,-82.5 557.5,-82.5"/>
<text text-anchor="middle" x="591.75" y="-95.2" font-family="Times New Roman,serif" font-size="14.00">d:&#45;6.0000</text>
<polyline fill="none" stroke="black" points="626,-82.75 626,-118.5"/>
<text text-anchor="middle" x="657.62" y="-95.2" font-family="Times New Roman,serif" font-size="14.00">g:0.5000</text>
</g>
<!-- 1417550271952+ -->
<g id="node13" class="node">
<title>1417550271952+</title>
<ellipse fill="none" stroke="black" cx="761.75" cy="-72.5" rx="27" ry="18"/>
<text text-anchor="middle" x="761.75" y="-67.08" font-family="Times New Roman,serif" font-size="14.00">+</text>
</g>
<!-- 1417550271760&#45;&gt;1417550271952+ -->
<g id="edge6" class="edge">
<title>1417550271760&#45;&gt;1417550271952+</title>
<path fill="none" stroke="black" d="M689.37,-87.16C701.46,-84.67 713.68,-82.16 724.52,-79.94"/>
<polygon fill="black" stroke="black" points="725.08,-83.4 734.17,-77.96 723.68,-76.54 725.08,-83.4"/>
</g>
<!-- 1417550271760+&#45;&gt;1417550271760 -->
<g id="edge3" class="edge">
<title>1417550271760+&#45;&gt;1417550271760</title>
<path fill="none" stroke="black" d="M512.29,-100.5C522.13,-100.5 533.87,-100.5 545.95,-100.5"/>
<polygon fill="black" stroke="black" points="545.59,-104 555.59,-100.5 545.59,-97 545.59,-104"/>
</g>
<!-- 1417549882672 -->
<g id="node11" class="node">
<title>1417549882672</title>
<polygon fill="none" stroke="black" points="548,-27.5 548,-63.5 698.75,-63.5 698.75,-27.5 548,-27.5"/>
<text text-anchor="middle" x="559.75" y="-40.2" font-family="Times New Roman,serif" font-size="14.00">b</text>
<polyline fill="none" stroke="black" points="571.5,-27.75 571.5,-63.5"/>
<text text-anchor="middle" x="603.5" y="-40.2" font-family="Times New Roman,serif" font-size="14.00">d:6.8814</text>
<polyline fill="none" stroke="black" points="635.5,-27.75 635.5,-63.5"/>
<text text-anchor="middle" x="667.12" y="-40.2" font-family="Times New Roman,serif" font-size="14.00">g:0.5000</text>
</g>
<!-- 1417549882672&#45;&gt;1417550271952+ -->
<g id="edge12" class="edge">
<title>1417549882672&#45;&gt;1417550271952+</title>
<path fill="none" stroke="black" d="M698.95,-60.26C707.8,-62.02 716.52,-63.74 724.48,-65.32"/>
<polygon fill="black" stroke="black" points="723.56,-68.71 734.05,-67.21 724.92,-61.84 723.56,-68.71"/>
</g>
<!-- 1417550271952 -->
<g id="node12" class="node">
<title>1417550271952</title>
<polygon fill="none" stroke="black" points="824.75,-54.5 824.75,-90.5 952,-90.5 952,-54.5 824.75,-54.5"/>
<text text-anchor="middle" x="856.75" y="-67.2" font-family="Times New Roman,serif" font-size="14.00">d:0.8814</text>
<polyline fill="none" stroke="black" points="888.75,-54.75 888.75,-90.5"/>
<text text-anchor="middle" x="920.38" y="-67.2" font-family="Times New Roman,serif" font-size="14.00">g:0.5000</text>
</g>
<!-- 1417550271952&#45;&gt;1417550272096tanh -->
<g id="edge9" class="edge">
<title>1417550271952&#45;&gt;1417550272096tanh</title>
<path fill="none" stroke="black" d="M952.42,-72.5C960.58,-72.5 968.72,-72.5 976.29,-72.5"/>
<polygon fill="black" stroke="black" points="976.12,-76 986.12,-72.5 976.12,-69 976.12,-76"/>
</g>
<!-- 1417550271952+&#45;&gt;1417550271952 -->
<g id="edge4" class="edge">
<title>1417550271952+&#45;&gt;1417550271952</title>
<path fill="none" stroke="black" d="M789.18,-72.5C796.38,-72.5 804.56,-72.5 813.04,-72.5"/>
<polygon fill="black" stroke="black" points="812.8,-76 822.8,-72.5 812.8,-69 812.8,-76"/>
</g>
<!-- 1417550271472 -->
<g id="node14" class="node">
<title>1417550271472</title>
<polygon fill="none" stroke="black" points="292.5,-55.5 292.5,-91.5 419.75,-91.5 419.75,-55.5 292.5,-55.5"/>
<text text-anchor="middle" x="324.5" y="-68.2" font-family="Times New Roman,serif" font-size="14.00">d:0.0000</text>
<polyline fill="none" stroke="black" points="356.5,-55.75 356.5,-91.5"/>
<text text-anchor="middle" x="388.12" y="-68.2" font-family="Times New Roman,serif" font-size="14.00">g:0.5000</text>
</g>
<!-- 1417550271472&#45;&gt;1417550271760+ -->
<g id="edge7" class="edge">
<title>1417550271472&#45;&gt;1417550271760+</title>
<path fill="none" stroke="black" d="M420.19,-86.92C429.6,-88.92 439.01,-90.93 447.62,-92.76"/>
<polygon fill="black" stroke="black" points="446.77,-96.16 457.28,-94.81 448.23,-89.31 446.77,-96.16"/>
</g>
<!-- 1417550271472*&#45;&gt;1417550271472 -->
<g id="edge5" class="edge">
<title>1417550271472*&#45;&gt;1417550271472</title>
<path fill="none" stroke="black" d="M254.54,-73.5C262.38,-73.5 271.4,-73.5 280.74,-73.5"/>
<polygon fill="black" stroke="black" points="280.72,-77 290.72,-73.5 280.72,-70 280.72,-77"/>
</g>
</g>
</svg>
